<svg xmlns="http://www.w3.org/2000/svg" xmlns:xlink="http://www.w3.org/1999/xlink" contentStyleType="text/css" data-diagram-type="CLASS" height="1278px" preserveAspectRatio="none" style="width:572px;height:1278px;background:#1B1B1B;" version="1.1" viewBox="0 0 572 1278" width="572px" zoomAndPan="magnify"><defs/><g><rect fill="#1B1B1B" height="1278" style="stroke:none;stroke-width:1;" width="572" x="0" y="0"/><!--cluster Core--><g class="cluster" data-entity="Core" data-source-line="10" data-uid="ent0002" id="cluster_Core"><path d="M242.91,497 L377.3954,497 A3.75,3.75 0 0 1 379.8954,499.5 L386.8954,519.2969 L562.67,519.2969 A2.5,2.5 0 0 1 565.17,521.7969 L565.17,1151.5 A2.5,2.5 0 0 1 562.67,1154 L242.91,1154 A2.5,2.5 0 0 1 240.41,1151.5 L240.41,499.5 A2.5,2.5 0 0 1 242.91,497" fill="none" style="stroke:#FFFFFF;stroke-width:1.5;"/><line style="stroke:#FFFFFF;stroke-width:1.5;" x1="240.41" x2="386.8954" y1="519.2969" y2="519.2969"/><text fill="#FFFFFF" font-family="sans-serif" font-size="14" font-weight="bold" lengthAdjust="spacing" textLength="133.4854" x="244.41" y="511.9951">Core (interfaces)</text></g><!--cluster Entities--><g class="cluster" data-entity="Entities" data-source-line="30" data-uid="ent0008" id="cluster_Entities"><path d="M17.81,6 L79.1508,6 A3.75,3.75 0 0 1 81.6508,8.5 L88.6508,28.2969 L482.89,28.2969 A2.5,2.5 0 0 1 485.39,30.7969 L485.39,128.5 A2.5,2.5 0 0 1 482.89,131 L17.81,131 A2.5,2.5 0 0 1 15.31,128.5 L15.31,8.5 A2.5,2.5 0 0 1 17.81,6" fill="none" style="stroke:#FFFFFF;stroke-width:1.5;"/><line style="stroke:#FFFFFF;stroke-width:1.5;" x1="15.31" x2="88.6508" y1="28.2969" y2="28.2969"/><text fill="#FFFFFF" font-family="sans-serif" font-size="14" font-weight="bold" lengthAdjust="spacing" textLength="60.3408" x="19.31" y="20.9951">Entities</text></g><!--cluster Iterators--><g class="cluster" data-entity="Iterators" data-source-line="40" data-uid="ent0011" id="cluster_Iterators"><path d="M8.5,155 L78.7959,155 A3.75,3.75 0 0 1 81.2959,157.5 L88.2959,177.2969 L189.91,177.2969 A2.5,2.5 0 0 1 192.41,179.7969 L192.41,693.5 A2.5,2.5 0 0 1 189.91,696 L8.5,696 A2.5,2.5 0 0 1 6,693.5 L6,157.5 A2.5,2.5 0 0 1 8.5,155" fill="none" style="stroke:#FFFFFF;stroke-width:1.5;"/><line style="stroke:#FFFFFF;stroke-width:1.5;" x1="6" x2="88.2959" y1="177.2969" y2="177.2969"/><text fill="#FFFFFF" font-family="sans-serif" font-size="14" font-weight="bold" lengthAdjust="spacing" textLength="69.2959" x="10" y="169.9951">Iterators</text></g><!--cluster Consumers--><g class="cluster" data-entity="Consumers" data-source-line="48" data-uid="ent0017" id="cluster_Consumers"><path d="M26.89,720 L115.3695,720 A3.75,3.75 0 0 1 117.8695,722.5 L124.8695,742.2969 L171.52,742.2969 A2.5,2.5 0 0 1 174.02,744.7969 L174.02,922.5 A2.5,2.5 0 0 1 171.52,925 L26.89,925 A2.5,2.5 0 0 1 24.39,922.5 L24.39,722.5 A2.5,2.5 0 0 1 26.89,720" fill="none" style="stroke:#FFFFFF;stroke-width:1.5;"/><line style="stroke:#FFFFFF;stroke-width:1.5;" x1="24.39" x2="124.8695" y1="742.2969" y2="742.2969"/><text fill="#FFFFFF" font-family="sans-serif" font-size="14" font-weight="bold" lengthAdjust="spacing" textLength="87.4795" x="28.39" y="734.9951">Consumers</text></g><!--cluster Processors--><g class="cluster" data-entity="Processors" data-source-line="53" data-uid="ent0020" id="cluster_Processors"><path d="M12.37,949 L99.4686,949 A3.75,3.75 0 0 1 101.9686,951.5 L108.9686,971.2969 L186.04,971.2969 A2.5,2.5 0 0 1 188.54,973.7969 L188.54,1151.5 A2.5,2.5 0 0 1 186.04,1154 L12.37,1154 A2.5,2.5 0 0 1 9.87,1151.5 L9.87,951.5 A2.5,2.5 0 0 1 12.37,949" fill="none" style="stroke:#FFFFFF;stroke-width:1.5;"/><line style="stroke:#FFFFFF;stroke-width:1.5;" x1="9.87" x2="108.9686" y1="971.2969" y2="971.2969"/><text fill="#FFFFFF" font-family="sans-serif" font-size="14" font-weight="bold" lengthAdjust="spacing" textLength="86.0986" x="13.87" y="963.9951">Processors</text></g><!--cluster Factory--><g class="cluster" data-entity="Factory" data-source-line="58" data-uid="ent0023" id="cluster_Factory"><path d="M30.3,1178 L90.9504,1178 A3.75,3.75 0 0 1 93.4504,1180.5 L100.4504,1200.2969 L460.89,1200.2969 A2.5,2.5 0 0 1 463.39,1202.7969 L463.39,1268.5 A2.5,2.5 0 0 1 460.89,1271 L30.3,1271 A2.5,2.5 0 0 1 27.8,1268.5 L27.8,1180.5 A2.5,2.5 0 0 1 30.3,1178" fill="none" style="stroke:#FFFFFF;stroke-width:1.5;"/><line style="stroke:#FFFFFF;stroke-width:1.5;" x1="27.8" x2="100.4504" y1="1200.2969" y2="1200.2969"/><text fill="#FFFFFF" font-family="sans-serif" font-size="14" font-weight="bold" lengthAdjust="spacing" textLength="59.6504" x="31.8" y="1192.9951">Factory</text></g><!--class IIterator--><g class="entity" data-entity="IIterator" data-source-line="11" data-uid="ent0003" id="entity_IIterator"><rect fill="#313139" height="74.8906" rx="2.5" ry="2.5" style="stroke:#E7E7E7;stroke-width:0.5;" width="135.7852" x="334.89" y="531.55"/><text fill="#FFFFFF" font-family="sans-serif" font-size="14" font-style="italic" lengthAdjust="spacing" textLength="56.5059" x="374.5296" y="549.5451">IIterator</text><line style="stroke:#E7E7E7;stroke-width:0.5;" x1="335.89" x2="469.6752" y1="557.8469" y2="557.8469"/><line style="stroke:#E7E7E7;stroke-width:0.5;" x1="335.89" x2="469.6752" y1="565.8469" y2="565.8469"/><text fill="#FFFFFF" font-family="sans-serif" font-size="14" lengthAdjust="spacing" textLength="123.7852" x="340.89" y="582.842">+hasNext() : bool</text><text fill="#FFFFFF" font-family="sans-serif" font-size="14" lengthAdjust="spacing" textLength="100.96" x="340.89" y="599.1389">+next() : Data</text></g><!--class IIterable--><g class="entity" data-entity="IIterable" data-source-line="15" data-uid="ent0004" id="entity_IIterable"><rect fill="#313139" height="58.5938" rx="2.5" ry="2.5" style="stroke:#E7E7E7;stroke-width:0.5;" width="163.915" x="320.83" y="1079.7"/><text fill="#FFFFFF" font-family="sans-serif" font-size="14" font-style="italic" lengthAdjust="spacing" textLength="58.085" x="373.745" y="1097.6951">IIterable</text><line style="stroke:#E7E7E7;stroke-width:0.5;" x1="321.83" x2="483.745" y1="1105.9969" y2="1105.9969"/><line style="stroke:#E7E7E7;stroke-width:0.5;" x1="321.83" x2="483.745" y1="1113.9969" y2="1113.9969"/><text fill="#FFFFFF" font-family="sans-serif" font-size="14" lengthAdjust="spacing" textLength="151.915" x="326.83" y="1130.992">+iterator() : IIterator*</text></g><!--class IBatchIterator--><g class="entity" data-entity="IBatchIterator" data-source-line="18" data-uid="ent0005" id="entity_IBatchIterator"><rect fill="#313139" height="74.8906" rx="2.5" ry="2.5" style="stroke:#E7E7E7;stroke-width:0.5;" width="292.7588" x="256.41" y="676.55"/><text fill="#FFFFFF" font-family="sans-serif" font-size="14" font-style="italic" lengthAdjust="spacing" textLength="96.749" x="354.4149" y="694.5451">IBatchIterator</text><line style="stroke:#E7E7E7;stroke-width:0.5;" x1="257.41" x2="548.1688" y1="702.8469" y2="702.8469"/><line style="stroke:#E7E7E7;stroke-width:0.5;" x1="257.41" x2="548.1688" y1="710.8469" y2="710.8469"/><text fill="#FFFFFF" font-family="sans-serif" font-size="14" lengthAdjust="spacing" textLength="164.0283" x="262.41" y="727.842">+hasNextBatch() : bool</text><text fill="#FFFFFF" font-family="sans-serif" font-size="14" lengthAdjust="spacing" textLength="280.7588" x="262.41" y="744.1389">+nextBatch(offset : int) : vector&lt;Data&gt;</text></g><!--class IProcessor--><g class="entity" data-entity="IProcessor" data-source-line="22" data-uid="ent0006" id="entity_IProcessor"><rect fill="#313139" height="58.5938" rx="2.5" ry="2.5" style="stroke:#E7E7E7;stroke-width:0.5;" width="155.6094" x="324.98" y="821.7"/><text fill="#FFFFFF" font-family="sans-serif" font-size="14" font-style="italic" lengthAdjust="spacing" textLength="72.1123" x="366.7285" y="839.6951">IProcessor</text><line style="stroke:#E7E7E7;stroke-width:0.5;" x1="325.98" x2="479.5894" y1="847.9969" y2="847.9969"/><line style="stroke:#E7E7E7;stroke-width:0.5;" x1="325.98" x2="479.5894" y1="855.9969" y2="855.9969"/><text fill="#FFFFFF" font-family="sans-serif" font-size="14" lengthAdjust="spacing" textLength="143.6094" x="330.98" y="872.992">+process(d : Data&amp;)</text></g><!--class IBatchProcessor--><g class="entity" data-entity="IBatchProcessor" data-source-line="25" data-uid="ent0007" id="entity_IBatchProcessor"><rect fill="#313139" height="58.5938" rx="2.5" ry="2.5" style="stroke:#E7E7E7;stroke-width:0.5;" width="254.1152" x="275.73" y="950.7"/><text fill="#FFFFFF" font-family="sans-serif" font-size="14" font-style="italic" lengthAdjust="spacing" textLength="112.3555" x="346.6099" y="968.6951">IBatchProcessor</text><line style="stroke:#E7E7E7;stroke-width:0.5;" x1="276.73" x2="528.8452" y1="976.9969" y2="976.9969"/><line style="stroke:#E7E7E7;stroke-width:0.5;" x1="276.73" x2="528.8452" y1="984.9969" y2="984.9969"/><text fill="#FFFFFF" font-family="sans-serif" font-size="14" lengthAdjust="spacing" textLength="242.1152" x="281.73" y="1001.992">+process(batch : vector&lt;Data&gt;&amp;)</text></g><!--class Data--><g class="entity" data-entity="Data" data-source-line="31" data-uid="ent0009" id="entity_Data"><rect fill="#313139" height="58.5938" rx="2.5" ry="2.5" style="stroke:#E7E7E7;stroke-width:0.5;" width="133.208" x="336.18" y="48.7"/><text fill="#FFFFFF" font-family="sans-serif" font-size="14" lengthAdjust="spacing" textLength="33.4277" x="386.0701" y="66.6951">Data</text><line style="stroke:#E7E7E7;stroke-width:0.5;" x1="337.18" x2="468.388" y1="74.9969" y2="74.9969"/><text fill="#FFFFFF" font-family="sans-serif" font-size="14" lengthAdjust="spacing" textLength="121.208" x="342.18" y="91.992">+payload : string</text><line style="stroke:#E7E7E7;stroke-width:0.5;" x1="337.18" x2="468.388" y1="99.2938" y2="99.2938"/></g><!--class DataStream--><g class="entity" data-entity="DataStream" data-source-line="34" data-uid="ent0010" id="entity_DataStream"><rect fill="#313139" height="74.8906" rx="2.5" ry="2.5" style="stroke:#E7E7E7;stroke-width:0.5;" width="135.7852" x="31.31" y="40.55"/><text fill="#FFFFFF" font-family="sans-serif" font-size="14" lengthAdjust="spacing" textLength="84.3896" x="57.0078" y="58.5451">DataStream</text><line style="stroke:#E7E7E7;stroke-width:0.5;" x1="32.31" x2="166.0952" y1="66.8469" y2="66.8469"/><line style="stroke:#E7E7E7;stroke-width:0.5;" x1="32.31" x2="166.0952" y1="74.8469" y2="74.8469"/><text fill="#FFFFFF" font-family="sans-serif" font-size="14" lengthAdjust="spacing" textLength="123.7852" x="37.31" y="91.842">+hasNext() : bool</text><text fill="#FFFFFF" font-family="sans-serif" font-size="14" lengthAdjust="spacing" textLength="100.96" x="37.31" y="108.1389">+next() : Data</text></g><!--class ForwardIterator--><g class="entity" data-entity="ForwardIterator" data-source-line="41" data-uid="ent0012" id="entity_ForwardIterator"><rect fill="#313139" height="42.2969" rx="2.5" ry="2.5" style="stroke:#E7E7E7;stroke-width:0.5;" width="115.4229" x="41.49" y="189.85"/><text fill="#FFFFFF" font-family="sans-serif" font-size="14" lengthAdjust="spacing" textLength="109.4229" x="44.49" y="207.8451">ForwardIterator</text><line style="stroke:#E7E7E7;stroke-width:0.5;" x1="42.49" x2="155.9129" y1="216.1469" y2="216.1469"/><line style="stroke:#E7E7E7;stroke-width:0.5;" x1="42.49" x2="155.9129" y1="224.1469" y2="224.1469"/></g><!--class BackwardIterator--><g class="entity" data-entity="BackwardIterator" data-source-line="42" data-uid="ent0013" id="entity_BackwardIterator"><rect fill="#313139" height="42.2969" rx="2.5" ry="2.5" style="stroke:#E7E7E7;stroke-width:0.5;" width="127.0371" x="35.69" y="525.85"/><text fill="#FFFFFF" font-family="sans-serif" font-size="14" lengthAdjust="spacing" textLength="121.0371" x="38.69" y="543.8451">BackwardIterator</text><line style="stroke:#E7E7E7;stroke-width:0.5;" x1="36.69" x2="161.7271" y1="552.1469" y2="552.1469"/><line style="stroke:#E7E7E7;stroke-width:0.5;" x1="36.69" x2="161.7271" y1="560.1469" y2="560.1469"/></g><!--class JumperIterator--><g class="entity" data-entity="JumperIterator" data-source-line="43" data-uid="ent0014" id="entity_JumperIterator"><rect fill="#313139" height="42.2969" rx="2.5" ry="2.5" style="stroke:#E7E7E7;stroke-width:0.5;" width="108.2725" x="45.07" y="413.85"/><text fill="#FFFFFF" font-family="sans-serif" font-size="14" lengthAdjust="spacing" textLength="102.2725" x="48.07" y="431.8451">JumperIterator</text><line style="stroke:#E7E7E7;stroke-width:0.5;" x1="46.07" x2="152.3425" y1="440.1469" y2="440.1469"/><line style="stroke:#E7E7E7;stroke-width:0.5;" x1="46.07" x2="152.3425" y1="448.1469" y2="448.1469"/></g><!--class BatchIteratorAdapter--><g class="entity" data-entity="BatchIteratorAdapter" data-source-line="44" data-uid="ent0015" id="entity_BatchIteratorAdapter"><rect fill="#313139" height="42.2969" rx="2.5" ry="2.5" style="stroke:#E7E7E7;stroke-width:0.5;" width="154.4082" x="22" y="637.85"/><text fill="#FFFFFF" font-family="sans-serif" font-size="14" lengthAdjust="spacing" textLength="148.4082" x="25" y="655.8451">BatchIteratorAdapter</text><line style="stroke:#E7E7E7;stroke-width:0.5;" x1="23" x2="175.4082" y1="664.1469" y2="664.1469"/><line style="stroke:#E7E7E7;stroke-width:0.5;" x1="23" x2="175.4082" y1="672.1469" y2="672.1469"/></g><!--class BidirectionalIterator--><g class="entity" data-entity="BidirectionalIterator" data-source-line="45" data-uid="ent0016" id="entity_BidirectionalIterator"><rect fill="#313139" height="42.2969" rx="2.5" ry="2.5" style="stroke:#E7E7E7;stroke-width:0.5;" width="146" x="26.2" y="301.85"/><text fill="#FFFFFF" font-family="sans-serif" font-size="14" lengthAdjust="spacing" textLength="140" x="29.2" y="319.8451">BidirectionalIterator</text><line style="stroke:#E7E7E7;stroke-width:0.5;" x1="27.2" x2="171.2" y1="328.1469" y2="328.1469"/><line style="stroke:#E7E7E7;stroke-width:0.5;" x1="27.2" x2="171.2" y1="336.1469" y2="336.1469"/></g><!--class Consumer--><g class="entity" data-entity="Consumer" data-source-line="49" data-uid="ent0018" id="entity_Consumer"><rect fill="#313139" height="42.2969" rx="2.5" ry="2.5" style="stroke:#E7E7E7;stroke-width:0.5;" width="77.3877" x="60.51" y="754.85"/><text fill="#FFFFFF" font-family="sans-serif" font-size="14" lengthAdjust="spacing" textLength="71.3877" x="63.51" y="772.8451">Consumer</text><line style="stroke:#E7E7E7;stroke-width:0.5;" x1="61.51" x2="136.8977" y1="781.1469" y2="781.1469"/><line style="stroke:#E7E7E7;stroke-width:0.5;" x1="61.51" x2="136.8977" y1="789.1469" y2="789.1469"/></g><!--class BatchConsumer--><g class="entity" data-entity="BatchConsumer" data-source-line="50" data-uid="ent0019" id="entity_BatchConsumer"><rect fill="#313139" height="42.2969" rx="2.5" ry="2.5" style="stroke:#E7E7E7;stroke-width:0.5;" width="117.6309" x="40.39" y="866.85"/><text fill="#FFFFFF" font-family="sans-serif" font-size="14" lengthAdjust="spacing" textLength="111.6309" x="43.39" y="884.8451">BatchConsumer</text><line style="stroke:#E7E7E7;stroke-width:0.5;" x1="41.39" x2="157.0209" y1="893.1469" y2="893.1469"/><line style="stroke:#E7E7E7;stroke-width:0.5;" x1="41.39" x2="157.0209" y1="901.1469" y2="901.1469"/></g><!--class PrintProcessor--><g class="entity" data-entity="PrintProcessor" data-source-line="54" data-uid="ent0021" id="entity_PrintProcessor"><rect fill="#313139" height="42.2969" rx="2.5" ry="2.5" style="stroke:#E7E7E7;stroke-width:0.5;" width="106.4336" x="45.99" y="983.85"/><text fill="#FFFFFF" font-family="sans-serif" font-size="14" lengthAdjust="spacing" textLength="100.4336" x="48.99" y="1001.8451">PrintProcessor</text><line style="stroke:#E7E7E7;stroke-width:0.5;" x1="46.99" x2="151.4236" y1="1010.1469" y2="1010.1469"/><line style="stroke:#E7E7E7;stroke-width:0.5;" x1="46.99" x2="151.4236" y1="1018.1469" y2="1018.1469"/></g><!--class PrintBatchProcessor--><g class="entity" data-entity="PrintBatchProcessor" data-source-line="55" data-uid="ent0022" id="entity_PrintBatchProcessor"><rect fill="#313139" height="42.2969" rx="2.5" ry="2.5" style="stroke:#E7E7E7;stroke-width:0.5;" width="146.6768" x="25.87" y="1095.85"/><text fill="#FFFFFF" font-family="sans-serif" font-size="14" lengthAdjust="spacing" textLength="140.6768" x="28.87" y="1113.8451">PrintBatchProcessor</text><line style="stroke:#E7E7E7;stroke-width:0.5;" x1="26.87" x2="171.5468" y1="1122.1469" y2="1122.1469"/><line style="stroke:#E7E7E7;stroke-width:0.5;" x1="26.87" x2="171.5468" y1="1130.1469" y2="1130.1469"/></g><!--class IteratorFactory--><g class="entity" data-entity="IteratorFactory" data-source-line="59" data-uid="ent0024" id="entity_IteratorFactory"><rect fill="#313139" height="42.2969" rx="2.5" ry="2.5" style="stroke:#E7E7E7;stroke-width:0.5;" width="110.8018" x="43.8" y="1212.85"/><text fill="#FFFFFF" font-family="sans-serif" font-size="14" lengthAdjust="spacing" textLength="104.8018" x="46.8" y="1230.8451">IteratorFactory</text><line style="stroke:#E7E7E7;stroke-width:0.5;" x1="44.8" x2="153.6018" y1="1239.1469" y2="1239.1469"/><line style="stroke:#E7E7E7;stroke-width:0.5;" x1="44.8" x2="153.6018" y1="1247.1469" y2="1247.1469"/></g><!--class IteratorKind--><g class="entity" data-entity="IteratorKind" data-source-line="60" data-uid="ent0025" id="entity_IteratorKind"><rect fill="#313139" height="42.2969" rx="2.5" ry="2.5" style="stroke:#E7E7E7;stroke-width:0.5;" width="89.207" x="358.18" y="1212.85"/><text fill="#FFFFFF" font-family="sans-serif" font-size="14" lengthAdjust="spacing" textLength="83.207" x="361.18" y="1230.8451">IteratorKind</text><line style="stroke:#E7E7E7;stroke-width:0.5;" x1="359.18" x2="446.387" y1="1239.1469" y2="1239.1469"/><line style="stroke:#E7E7E7;stroke-width:0.5;" x1="359.18" x2="446.387" y1="1247.1469" y2="1247.1469"/></g><!--link ForwardIterator to IIterator--><g class="link" data-entity-1="ForwardIterator" data-entity-2="IIterator" data-source-line="64" data-uid="lnk26" id="link_ForwardIterator_IIterator"><path codeLine="64" d="M157.1,211 C250.77,211 425.17,211 425.17,211 C425.17,211 425.17,421.45 425.17,513.36" fill="none" id="ForwardIterator-to-IIterator" style="stroke:#E7E7E7;stroke-width:1;"/><polygon fill="none" points="425.17,531.36,431.17,513.36,419.17,513.36,425.17,531.36" style="stroke:#E7E7E7;stroke-width:1;"/></g><!--link BackwardIterator to IIterator--><g class="link" data-entity-1="BackwardIterator" data-entity-2="IIterator" data-source-line="65" data-uid="lnk27" id="link_BackwardIterator_IIterator"><path codeLine="65" d="M163.22,555.95 C213.49,555.95 265.34,555.95 316.65,555.95" fill="none" id="BackwardIterator-to-IIterator" style="stroke:#E7E7E7;stroke-width:1;"/><polygon fill="none" points="334.65,555.95,316.65,549.95,316.65,561.95,334.65,555.95" style="stroke:#E7E7E7;stroke-width:1;"/></g><!--link JumperIterator to IIterator--><g class="link" data-entity-1="JumperIterator" data-entity-2="IIterator" data-source-line="66" data-uid="lnk28" id="link_JumperIterator_IIterator"><path codeLine="66" d="M153.57,435 C235.5,435 381.17,435 381.17,435 C381.17,435 381.17,473.68 381.17,513.32" fill="none" id="JumperIterator-to-IIterator" style="stroke:#E7E7E7;stroke-width:1;"/><polygon fill="none" points="381.17,531.32,387.17,513.32,375.17,513.32,381.17,531.32" style="stroke:#E7E7E7;stroke-width:1;"/></g><!--link BidirectionalIterator to IIterator--><g class="link" data-entity-1="BidirectionalIterator" data-entity-2="IIterator" data-source-line="67" data-uid="lnk29" id="link_BidirectionalIterator_IIterator"><path codeLine="67" d="M166.17,344.57 C166.17,400.12 166.17,543.75 166.17,543.75 C166.17,543.75 246.76,543.75 316.66,543.75" fill="none" id="BidirectionalIterator-to-IIterator" style="stroke:#E7E7E7;stroke-width:1;"/><polygon fill="none" points="334.66,543.75,316.66,537.75,316.66,549.75,334.66,543.75" style="stroke:#E7E7E7;stroke-width:1;"/></g><!--link BatchIteratorAdapter to IBatchIterator--><g class="link" data-entity-1="BatchIteratorAdapter" data-entity-2="IBatchIterator" data-source-line="68" data-uid="lnk30" id="link_BatchIteratorAdapter_IBatchIterator"><path codeLine="68" d="M169.17,680.47 C169.17,696.56 169.17,715.8 169.17,715.8 C169.17,715.8 191.22,715.8 238.16,715.8" fill="none" id="BatchIteratorAdapter-to-IBatchIterator" style="stroke:#E7E7E7;stroke-width:1;"/><polygon fill="none" points="256.16,715.8,238.16,709.8,238.16,721.8,256.16,715.8" style="stroke:#E7E7E7;stroke-width:1;"/></g><!--link PrintProcessor to IProcessor--><g class="link" data-entity-1="PrintProcessor" data-entity-2="IProcessor" data-source-line="71" data-uid="lnk31" id="link_PrintProcessor_IProcessor"><path codeLine="71" d="M152.88,992.33 C158.47,992.33 162.17,992.33 162.17,992.33 C162.17,992.33 162.17,875.82 162.17,875.82 C162.17,875.82 236.41,875.82 306.66,875.82" fill="none" id="PrintProcessor-to-IProcessor" style="stroke:#E7E7E7;stroke-width:1;"/><polygon fill="none" points="324.66,875.82,306.66,869.82,306.66,881.82,324.66,875.82" style="stroke:#E7E7E7;stroke-width:1;"/></g><!--link PrintBatchProcessor to IBatchProcessor--><g class="link" data-entity-1="PrintBatchProcessor" data-entity-2="IBatchProcessor" data-source-line="72" data-uid="lnk32" id="link_PrintBatchProcessor_IBatchProcessor"><path codeLine="72" d="M166.17,1095.42 C166.17,1061.82 166.17,1000.82 166.17,1000.82 C166.17,1000.82 201.47,1000.82 257.47,1000.82" fill="none" id="PrintBatchProcessor-to-IBatchProcessor" style="stroke:#E7E7E7;stroke-width:1;"/><polygon fill="none" points="275.47,1000.82,257.47,994.82,257.47,1006.82,275.47,1000.82" style="stroke:#E7E7E7;stroke-width:1;"/></g><!--link BatchIteratorAdapter to IIterator--><g class="link" data-entity-1="BatchIteratorAdapter" data-entity-2="IIterator" data-source-line="75" data-uid="lnk33" id="link_BatchIteratorAdapter_IIterator"><path codeLine="75" d="M169.17,637.65 C169.17,613.56 169.17,577.72 169.17,577.72 C169.17,577.72 259.63,577.72 328.59,577.72" fill="none" id="BatchIteratorAdapter-to-IIterator" style="stroke:#E7E7E7;stroke-width:1;"/><polygon fill="#E7E7E7" points="334.59,577.72,325.59,573.72,329.59,577.72,325.59,581.72,334.59,577.72" style="stroke:#E7E7E7;stroke-width:1;"/><text fill="#FFFFFF" font-family="sans-serif" font-size="13" lengthAdjust="spacing" textLength="33.4331" x="187.92" y="590.7869">inner</text></g><!--link Consumer to IIterator--><g class="link" data-entity-1="Consumer" data-entity-2="IIterator" data-source-line="76" data-uid="lnk34" id="link_Consumer_IIterator"><path codeLine="76" d="M138.21,776 C167.71,776 203.17,776 203.17,776 C203.17,776 203.17,587.3 203.17,587.3 C203.17,587.3 270.82,587.3 328.65,587.3" fill="none" id="Consumer-to-IIterator" style="stroke:#E7E7E7;stroke-width:1;"/><polygon fill="#E7E7E7" points="334.65,587.3,325.65,583.3,329.65,587.3,325.65,591.3,334.65,587.3" style="stroke:#E7E7E7;stroke-width:1;"/><text fill="#FFFFFF" font-family="sans-serif" font-size="13" lengthAdjust="spacing" textLength="8.709" x="194.17" y="661.4569">it</text></g><!--link Consumer to IProcessor--><g class="link" data-entity-1="Consumer" data-entity-2="IProcessor" data-source-line="77" data-uid="lnk35" id="link_Consumer_IProcessor"><path codeLine="77" d="M100.17,797.6 C100.17,817.61 100.17,844.28 100.17,844.28 C100.17,844.28 229.19,844.28 318.86,844.28" fill="none" id="Consumer-to-IProcessor" style="stroke:#E7E7E7;stroke-width:1;"/><polygon fill="#E7E7E7" points="324.86,844.28,315.86,840.28,319.86,844.28,315.86,848.28,324.86,844.28" style="stroke:#E7E7E7;stroke-width:1;"/><text fill="#FFFFFF" font-family="sans-serif" font-size="13" lengthAdjust="spacing" textLength="28.6978" x="160.17" y="857.3469">proc</text></g><!--link BatchConsumer to IBatchIterator--><g class="link" data-entity-1="BatchConsumer" data-entity-2="IBatchIterator" data-source-line="78" data-uid="lnk36" id="link_BatchConsumer_IBatchIterator"><path codeLine="78" d="M158.4,871.33 C205.36,871.33 263.17,871.33 263.17,871.33 C263.17,871.33 263.17,804.23 263.17,757.69" fill="none" id="BatchConsumer-to-IBatchIterator" style="stroke:#E7E7E7;stroke-width:1;"/><polygon fill="#E7E7E7" points="263.17,751.69,259.17,760.69,263.17,756.69,267.17,760.69,263.17,751.69" style="stroke:#E7E7E7;stroke-width:1;"/><text fill="#FFFFFF" font-family="sans-serif" font-size="13" lengthAdjust="spacing" textLength="8.709" x="254.17" y="876.9569">it</text></g><!--link DataStream to Data--><g class="link" data-entity-1="DataStream" data-entity-2="Data" data-source-line="79" data-uid="lnk37" id="link_DataStream_Data"><path codeLine="79" d="M167.33,78 C217.68,78 279.89,78 329.93,78" fill="none" id="DataStream-to-Data" style="stroke:#E7E7E7;stroke-width:1;"/><polygon fill="#E7E7E7" points="335.93,78,326.93,74,330.93,78,326.93,82,335.93,78" style="stroke:#E7E7E7;stroke-width:1;"/><text fill="#FFFFFF" font-family="sans-serif" font-size="13" lengthAdjust="spacing" textLength="55.0278" x="195.63" y="91.0669">contains</text></g><!--link IteratorFactory to IIterable--><g class="link" data-entity-1="IteratorFactory" data-entity-2="IIterable" data-source-line="80" data-uid="lnk38" id="link_IteratorFactory_IIterable"><path codeLine="80" d="M155.09,1238.23 C226.27,1238.23 340.17,1238.23 340.17,1238.23 C340.17,1238.23 340.17,1182.8 340.17,1144.65" fill="none" id="IteratorFactory-to-IIterable" style="stroke:#E7E7E7;stroke-width:1;stroke-dasharray:7,7;"/><polygon fill="#E7E7E7" points="340.17,1138.65,336.17,1147.65,340.17,1143.65,344.17,1147.65,340.17,1138.65" style="stroke:#E7E7E7;stroke-width:1;"/><text fill="#FFFFFF" font-family="sans-serif" font-size="13" lengthAdjust="spacing" textLength="29.7832" x="267.42" y="1251.2969">uses</text></g><!--link IteratorFactory to IIterator--><g class="link" data-entity-1="IteratorFactory" data-entity-2="IIterator" data-source-line="81" data-uid="lnk39" id="link_IteratorFactory_IIterator"><path codeLine="81" d="M154.74,1221.31 C190.44,1221.31 230.17,1221.31 230.17,1221.31 C230.17,1221.31 230.17,596.87 230.17,596.87 C230.17,596.87 280.31,596.87 328.56,596.87" fill="none" id="IteratorFactory-to-IIterator" style="stroke:#E7E7E7;stroke-width:1;stroke-dasharray:7,7;"/><polygon fill="#E7E7E7" points="334.56,596.87,325.56,592.87,329.56,596.87,325.56,600.87,334.56,596.87" style="stroke:#E7E7E7;stroke-width:1;"/><text fill="#FFFFFF" font-family="sans-serif" font-size="13" lengthAdjust="spacing" textLength="48.3247" x="181.17" y="907.6669">creates</text></g><!--link IteratorFactory to IBatchIterator--><g class="link" data-entity-1="IteratorFactory" data-entity-2="IBatchIterator" data-source-line="82" data-uid="lnk40" id="link_IteratorFactory_IBatchIterator"><path codeLine="82" d="M154.71,1229.77 C204.63,1229.77 270.17,1229.77 270.17,1229.77 C270.17,1229.77 270.17,877.04 270.17,757.93" fill="none" id="IteratorFactory-to-IBatchIterator" style="stroke:#E7E7E7;stroke-width:1;stroke-dasharray:7,7;"/><polygon fill="#E7E7E7" points="270.17,751.93,266.17,760.93,270.17,756.93,274.17,760.93,270.17,751.93" style="stroke:#E7E7E7;stroke-width:1;"/><text fill="#FFFFFF" font-family="sans-serif" font-size="13" lengthAdjust="spacing" textLength="48.3247" x="221.17" y="1061.6469">creates</text></g><!--link IteratorFactory to IteratorKind--><g class="link" data-entity-1="IteratorFactory" data-entity-2="IteratorKind" data-source-line="83" data-uid="lnk41" id="link_IteratorFactory_IteratorKind"><path codeLine="83" d="M154.89,1246.69 C213.26,1246.69 297.84,1246.69 351.83,1246.69" fill="none" id="IteratorFactory-to-IteratorKind" style="stroke:#E7E7E7;stroke-width:1;stroke-dasharray:7,7;"/><polygon fill="#E7E7E7" points="357.83,1246.69,348.83,1242.69,352.83,1246.69,348.83,1250.69,357.83,1246.69" style="stroke:#E7E7E7;stroke-width:1;"/><text fill="#FFFFFF" font-family="sans-serif" font-size="13" lengthAdjust="spacing" textLength="29.7832" x="226.36" y="1259.7569">uses</text></g><!--SRC=[bLJRZjCm47tFLupsWMs1xY9UG1Mgr0LMAaXejVq2DvasLXqxiYSBNTX_ntQSnBaXyUQPCpvpvc9VmwuejNh230Ixg8hMSDAgAgrTilJCJcZUWi0ZhKYjD3_bb3WBI86t8ECQK-9A9kRCPSaqAo0Lp9WjaUQ7Yd2NAhddpmZleX2fCZHOmeVOgPayE-V7s2cuHBgK24fJhfASPmWfrwd0EACgIYLHqfuk0g4gnFia2GN0rMUb4HPS4keZIz4ihu0PyDxV2K0Bm6vdJuoKzdw0Dv0pymD_qM89QpWe9O9RDhulZ9ZrlKpG70IsD3pm-ZjjbjVZctUCqdnEXGUdfDI0EXuDaaKjdmjwieDH-fEJk1bdUj3Aji94MShQiyX2NQ-MC_hchnuSF4WTQ5wYWNoLn8cZyNDe34_cLyTdxxZPHIZcH1cxKV8KH7MHUz9eT-2_HnOhQbfUIsgjIDEzqZ-PpXgezTzPYadWMrMKg2VYemblCrRQOmVozZqnqLvzwUsoD5M1GMXhHK8RNpzZwut9sa7MR9qPqJtOdbEBzDtzRUXHtpEt0HVF6yuHQLDQG4R-xrncZkuQ7b4mrmwJyzAuHvoZviIaNSPRi7CN_DdZosGm85Yj_cowjvOCvpJ4- -CQtPuQp3Z5UBGXfWUvkkotAx2mFrPT7QXZyuXi-vD-qmD7r-Y9viTvka2RQ6iFAGzPRg4oQEQ4HhNuNqJQTMdsPWpJ0Ekah7qfIM_lwfZ-z-P9eXViGlpJNziFtNQ6IvCCDWLkRZRH_xgkwvaFgjEabfxcueQQ_XaSxMT8_XS0]--></g></svg>